<?xml version="1.0" standalone="no"?>
<!DOCTYPE svg PUBLIC "-//W3C//DTD SVG 20010904//EN"
 "http://www.w3.org/TR/2001/REC-SVG-20010904/DTD/svg10.dtd">
<svg version="1.0" xmlns="http://www.w3.org/2000/svg"
 width="256.000000pt" height="256.000000pt" viewBox="0 0 256.000000 256.000000"
 preserveAspectRatio="xMidYMid meet">

<g transform="translate(0.000000,256.000000) scale(0.100000,-0.100000)"
fill="#000000" stroke="none">
<path d="M933 2436 c-422 -81 -733 -386 -825 -811 -7 -35 -12 -119 -12 -200 1
-116 6 -156 27 -236 43 -164 115 -299 230 -431 28 -32 53 -58 57 -58 4 0 7 48
8 108 0 105 0 108 -32 157 -195 296 -187 680 19 970 49 69 148 166 218 214 70
48 181 98 272 122 112 31 306 31 420 0 317 -85 565 -340 630 -651 24 -114 26
-110 -54 -110 -87 0 -100 -12 -73 -67 42 -81 195 -338 206 -345 32 -21 31 -22
170 219 108 186 108 191 -2 195 l-77 3 -7 59 c-34 271 -200 539 -432 698 -83
58 -227 122 -326 148 -109 28 -314 36 -417 16z"/>
<path d="M948 1947 c-136 -51 -228 -156 -257 -295 -6 -29 -11 -118 -11 -197 0
-134 -1 -144 -20 -150 -32 -10 -87 -83 -114 -151 -49 -122 -71 -367 -46 -519
27 -170 82 -261 187 -308 110 -49 310 -75 467 -62 l86 7 0 187 c0 174 2 190
23 231 16 33 35 52 69 70 l48 25 0 88 c0 88 0 89 34 123 52 52 92 48 162 -18
30 -28 56 -49 58 -47 8 9 -36 192 -58 242 -26 59 -77 123 -107 132 -18 6 -19
17 -19 148 0 224 -29 318 -125 406 -76 70 -136 94 -245 98 -63 2 -107 -1 -132
-10z m217 -151 c28 -13 63 -38 78 -56 49 -58 57 -91 57 -236 l0 -134 -57 7
c-75 10 -281 10 -355 0 l-58 -7 0 134 c0 145 8 178 57 236 37 45 116 80 178
80 31 0 69 -9 100 -24z m-32 -738 c30 -16 57 -70 57 -115 0 -33 -7 -50 -31
-78 l-31 -35 11 -67 c7 -38 14 -76 17 -85 5 -16 -4 -18 -91 -18 -87 0 -96 2
-91 18 3 9 10 47 17 85 l11 67 -31 35 c-95 108 34 261 162 193z"/>
<path d="M1460 941 c-5 -11 -10 -67 -10 -124 l0 -104 -42 -6 c-26 -3 -51 -15
-67 -31 l-26 -26 -3 -227 c-2 -159 0 -235 9 -255 24 -58 21 -58 568 -58 366 0
507 3 526 12 50 23 55 47 55 294 l0 226 -34 34 -34 34 -328 0 -328 0 -126 125
c-70 69 -132 125 -138 125 -6 0 -16 -9 -22 -19z m90 -467 c0 -32 2 -35 23 -29
37 12 41 11 45 -12 2 -17 -3 -24 -22 -29 -29 -7 -34 -25 -11 -44 20 -17 19
-36 -2 -45 -12 -4 -25 2 -40 19 l-22 26 -19 -25 c-22 -28 -35 -31 -51 -11 -8
10 -6 19 9 39 25 31 25 37 3 37 -30 0 -46 16 -39 38 6 18 11 19 39 11 17 -5
33 -9 34 -9 2 0 3 16 3 35 0 31 3 35 25 35 22 0 25 -4 25 -36z m240 0 c0 -37
2 -37 57 -17 6 2 14 -5 18 -18 8 -23 -7 -39 -37 -39 -23 0 -22 -9 2 -40 13
-18 16 -28 8 -37 -15 -19 -28 -16 -50 12 l-19 25 -22 -26 c-15 -17 -28 -23
-40 -19 -21 9 -21 23 -2 49 21 28 19 34 -14 41 -26 5 -29 9 -21 28 8 23 11 24
48 12 20 -6 22 -3 22 29 0 32 3 36 25 36 22 0 25 -4 25 -36z m250 1 c0 -39 -1
-39 34 -25 21 8 27 6 36 -10 14 -26 13 -28 -20 -35 -34 -7 -36 -13 -15 -41 19
-26 19 -40 -2 -49 -12 -4 -25 2 -39 21 l-22 27 -17 -27 c-19 -28 -37 -33 -53
-13 -8 9 -5 19 8 37 26 33 25 37 -10 45 -30 7 -37 19 -22 43 7 10 15 10 36 2
37 -14 36 -14 36 25 0 31 3 35 25 35 22 0 25 -4 25 -35z m250 0 c0 -39 -1 -39
34 -25 21 8 26 6 32 -12 7 -22 -9 -38 -38 -38 -23 0 -23 -6 2 -37 15 -20 17
-29 9 -39 -16 -20 -29 -17 -51 11 l-19 25 -23 -27 c-21 -24 -26 -26 -40 -14
-15 12 -15 16 -1 37 21 32 19 41 -11 48 -19 5 -24 12 -22 29 4 23 8 24 46 12
20 -6 22 -3 22 29 0 33 2 36 30 36 28 0 30 -3 30 -35z"/>
</g>
</svg>
